<svg xmlns="http://www.w3.org/2000/svg" xmlns:v="https://svgstorm.com"
viewBox = "0 0 1232 228"
width="1232"
height="228">
<g fill="None" fill-opacity="0.0" stroke="#000000" stroke-opacity="0.01" stroke-width="0.3"><path d="
M 0.00 228.00 
L 1232.00 228.00
L 1232.00 161.00
C 1222.31 163.50 1222.10 169.01 1222.01 180.01 C 1221.92 191.01 1221.95 207.26 1222.00 218.00
C 1216.71 220.12 1212.34 223.51 1206.23 224.58 C 1200.12 225.64 1194.66 226.92 1186.98 226.98 C 1179.30 227.03 1167.21 227.26 1161.25 225.60 C 1155.29 223.95 1149.78 223.26 1144.75 220.81 C 1139.72 218.35 1136.62 216.78 1131.25 213.61 C 1125.87 210.44 1119.90 202.50 1116.10 197.90 C 1112.30 193.30 1110.61 186.29 1108.20 180.75 C 1105.79 175.21 1105.83 169.90 1104.98 162.97 C 1104.13 156.05 1104.98 146.98 1106.39 141.25 C 1107.81 135.51 1109.60 130.57 1112.77 124.77 C 1115.94 118.97 1119.19 112.66 1124.75 107.75 C 1130.31 102.84 1135.03 100.15 1141.23 97.23 C 1147.43 94.31 1151.60 93.23 1158.25 91.24 C 1164.90 89.26 1175.38 91.37 1183.00 91.00 C 1190.62 90.63 1198.10 89.97 1203.75 92.60 C 1209.40 95.24 1220.17 91.00 1222.97 97.03 C 1225.76 103.07 1219.26 118.15 1222.00 125.00
C 1216.43 121.67 1219.08 114.41 1213.25 109.75 C 1207.43 105.08 1204.92 101.65 1198.90 100.09 C 1192.88 98.54 1188.54 98.16 1181.25 97.60 C 1173.96 97.04 1163.35 96.30 1156.77 98.21 C 1150.19 100.12 1145.99 102.70 1139.97 105.97 C 1133.94 109.24 1129.89 116.11 1126.89 120.89 C 1123.90 125.68 1123.69 130.40 1121.81 136.25 C 1119.92 142.10 1120.54 151.65 1120.99 159.01 C 1121.44 166.37 1121.65 171.84 1124.19 177.25 C 1126.73 182.67 1127.66 187.33 1131.19 192.25 C 1134.72 197.18 1139.94 202.41 1144.92 206.13 C 1149.89 209.85 1153.16 211.91 1158.30 214.71 C 1163.45 217.52 1168.60 216.46 1175.70 218.35 C 1182.79 220.24 1191.84 218.88 1198.75 217.41 C 1205.67 215.94 1207.57 211.14 1207.00 201.00 C 1206.43 190.86 1206.84 179.41 1206.22 169.78 C 1205.60 160.15 1195.65 164.62 1192.00 159.00
C 1204.46 160.00 1219.02 159.61 1232.00 159.00
L 1232.00 0.00
L 0.00 0.00
L 0.00 228.00
M 565.00 5.00 
C 566.13 8.30 568.03 16.35 563.00 17.00
C 565.20 6.58 548.85 12.11 541.00 9.00
C 543.55 19.11 541.03 33.83 542.00 44.00 C 542.97 54.17 537.36 66.46 549.00 67.00
C 544.45 69.82 532.34 69.33 527.00 67.00
C 529.78 66.52 530.66 65.39 533.00 66.00
C 534.70 48.51 533.76 28.62 534.00 10.00
C 523.06 10.09 512.79 8.58 508.00 16.00
C 509.04 11.70 510.06 8.88 511.00 5.00
C 527.32 7.86 548.19 8.56 565.00 5.00
M 603.00 9.00 
C 600.50 7.71 599.62 9.25 598.00 11.00
C 599.33 16.74 597.15 25.73 598.00 33.00
C 608.60 33.30 617.20 32.60 628.00 33.00 C 638.80 33.40 632.16 16.61 634.00 10.00
C 631.36 7.00 627.71 10.31 626.00 7.00
C 632.50 6.00 644.44 5.02 648.00 9.00
C 645.35 7.29 644.45 9.34 642.00 10.00
C 641.94 27.30 642.19 47.71 642.00 65.00
C 644.59 66.79 646.37 66.71 650.00 66.00
C 646.71 70.52 633.30 68.82 628.00 67.00
C 639.21 64.80 631.90 45.79 634.00 36.00
C 622.00 36.00 610.00 36.00 598.00 36.00
C 600.70 46.58 592.53 68.35 607.00 67.00
C 600.38 69.68 589.84 68.25 582.00 68.00
C 591.82 66.06 588.48 54.24 589.00 44.00 C 589.52 33.76 588.53 19.78 589.00 10.00
C 586.43 8.36 584.53 8.24 581.00 8.00
C 586.67 4.17 598.22 6.24 603.00 9.00
M 714.00 6.00 
C 711.20 8.90 713.91 13.42 711.00 17.00
C 708.39 7.10 694.94 11.07 685.00 10.00
C 685.00 18.00 685.00 26.00 685.00 34.00
C 693.94 33.40 705.16 35.65 711.00 31.00
C 711.10 34.60 710.51 38.21 710.00 43.00
C 706.21 34.11 694.43 38.12 685.00 37.00
C 686.77 44.81 686.48 54.18 685.00 62.00
C 695.37 66.94 711.55 66.85 716.00 57.00
C 715.30 61.63 715.31 65.07 713.00 69.00
C 698.63 68.66 680.54 69.10 667.00 67.00
C 668.58 65.83 670.99 66.20 672.00 67.00
C 677.67 60.67 674.97 49.03 675.00 39.00 C 675.03 28.97 676.92 15.75 673.00 8.00
C 670.50 10.33 667.90 7.18 665.00 8.00
C 679.38 3.27 698.90 9.86 714.00 6.00
M 501.00 63.00 
C 499.65 72.10 485.91 67.15 477.00 68.00 C 468.09 68.85 456.42 67.60 447.00 68.00 C 437.58 68.40 427.68 67.83 418.00 68.00 C 408.32 68.17 397.82 67.92 388.00 68.00 C 378.18 68.08 367.84 67.96 358.00 68.00 C 348.16 68.04 338.87 67.98 329.00 68.00 C 319.13 68.02 308.91 67.99 299.00 68.00 C 289.09 68.01 278.88 68.00 269.00 68.00 C 259.12 68.00 249.88 68.00 240.00 68.00 C 230.12 68.00 219.91 68.00 210.00 68.00 C 200.09 68.00 189.89 68.00 180.00 68.00 C 170.11 68.00 160.89 68.00 151.00 68.00 C 141.11 68.00 130.92 68.00 121.00 68.00 C 111.08 68.00 100.89 68.00 91.00 68.00 C 81.11 68.00 71.90 68.00 62.00 68.00 C 52.10 68.00 41.95 68.00 32.00 68.00 C 22.05 68.00 11.96 68.00 2.00 68.00
C 3.35 58.90 17.09 63.85 26.00 63.00 C 34.91 62.15 46.58 63.40 56.00 63.00 C 65.42 62.60 75.32 63.17 85.00 63.00 C 94.68 62.83 105.18 63.08 115.00 63.00 C 124.82 62.92 135.16 63.04 145.00 63.00 C 154.84 62.96 164.13 63.02 174.00 63.00 C 183.87 62.98 194.09 63.01 204.00 63.00 C 213.91 62.99 224.12 63.00 234.00 63.00 C 243.88 63.00 253.12 63.00 263.00 63.00 C 272.88 63.00 283.09 63.00 293.00 63.00 C 302.91 63.00 313.11 63.00 323.00 63.00 C 332.89 63.00 342.11 63.00 352.00 63.00 C 361.89 63.00 372.08 63.00 382.00 63.00 C 391.92 63.00 402.11 63.00 412.00 63.00 C 421.89 63.00 431.10 63.00 441.00 63.00 C 450.90 63.00 461.05 63.00 471.00 63.00 C 480.95 63.00 491.04 63.00 501.00 63.00
M 1228.00 63.00 
C 1226.37 72.17 1212.22 67.12 1203.00 68.00 C 1193.78 68.88 1181.73 67.59 1172.00 68.00 C 1162.27 68.41 1151.98 67.82 1142.00 68.00 C 1132.02 68.18 1121.09 67.92 1111.00 68.00 C 1100.91 68.08 1091.14 67.96 1081.00 68.00 C 1070.86 68.04 1060.17 67.98 1050.00 68.00 C 1039.83 68.02 1030.20 67.99 1020.00 68.00 C 1009.80 68.01 999.23 68.00 989.00 68.00 C 978.77 68.00 968.20 68.00 958.00 68.00 C 947.80 68.00 938.19 68.00 928.00 68.00 C 917.81 68.00 907.18 68.00 897.00 68.00 C 886.82 68.00 877.19 68.00 867.00 68.00 C 856.81 68.00 846.20 68.00 836.00 68.00 C 825.80 68.00 816.22 68.00 806.00 68.00 C 795.78 68.00 785.28 68.00 775.00 68.00 C 764.72 68.00 754.29 68.00 744.00 68.00
C 745.63 58.83 759.78 63.88 769.00 63.00 C 778.22 62.12 790.27 63.41 800.00 63.00 C 809.73 62.59 820.02 63.18 830.00 63.00 C 839.98 62.82 850.91 63.08 861.00 63.00 C 871.09 62.92 880.86 63.04 891.00 63.00 C 901.14 62.96 911.83 63.02 922.00 63.00 C 932.17 62.98 941.80 63.01 952.00 63.00 C 962.20 62.99 972.77 63.00 983.00 63.00 C 993.23 63.00 1003.80 63.00 1014.00 63.00 C 1024.20 63.00 1033.81 63.00 1044.00 63.00 C 1054.19 63.00 1064.82 63.00 1075.00 63.00 C 1085.18 63.00 1094.81 63.00 1105.00 63.00 C 1115.19 63.00 1125.80 63.00 1136.00 63.00 C 1146.20 63.00 1155.78 63.00 1166.00 63.00 C 1176.22 63.00 1186.72 63.00 1197.00 63.00 C 1207.28 63.00 1217.71 63.00 1228.00 63.00
M 407.00 93.00 
C 407.23 100.49 403.79 109.09 406.00 117.00
C 400.51 113.94 402.40 101.85 395.08 99.91 C 387.77 97.98 379.24 93.86 371.25 97.40 C 363.27 100.94 359.60 105.08 358.20 113.25 C 356.79 121.42 360.13 128.81 367.25 134.75 C 374.37 140.70 379.44 147.26 385.92 151.13 C 392.39 155.00 398.66 162.54 402.19 168.25 C 405.73 173.96 409.70 178.38 409.98 187.03 C 410.25 195.67 407.81 203.52 404.81 209.25 C 401.81 214.98 393.89 221.21 388.70 223.71 C 383.50 226.22 371.67 227.03 363.33 226.67 C 354.99 226.31 348.14 224.74 342.00 221.00
C 342.41 212.38 342.53 202.77 343.00 194.00
C 348.46 198.86 345.07 206.59 351.25 211.75 C 357.42 216.92 358.75 218.92 366.25 219.80 C 373.74 220.68 380.47 220.42 386.25 216.81 C 392.04 213.20 393.28 208.92 395.40 203.25 C 397.52 197.59 396.25 188.69 393.42 184.23 C 390.60 179.77 386.43 173.80 380.25 169.75 C 374.06 165.71 371.54 160.15 364.75 155.25 C 357.96 150.35 356.48 148.81 351.30 141.70 C 346.12 134.58 344.73 114.81 349.39 106.25 C 354.06 97.68 358.40 97.14 364.75 93.41 C 371.10 89.68 378.24 90.31 387.00 90.00 C 395.76 89.69 398.65 93.24 407.00 93.00
M 549.00 92.00 
C 549.42 100.24 547.29 108.59 547.00 116.00
C 544.26 106.86 542.15 103.13 532.75 101.80 C 523.36 100.48 511.03 101.29 501.00 100.00
C 502.69 112.05 502.18 125.58 502.00 138.00 C 501.82 150.42 502.72 164.86 502.00 177.00 C 501.28 189.14 501.15 200.87 502.40 211.74 C 503.65 222.62 510.26 220.13 519.00 224.00
C 504.77 225.99 488.03 222.59 474.00 225.00
C 478.63 220.51 484.65 220.92 485.21 212.77 C 485.77 204.62 485.95 197.59 486.33 188.33 C 486.71 179.07 487.26 169.71 487.00 160.00 C 486.74 150.29 487.14 139.85 487.00 130.00 C 486.86 120.15 487.10 109.89 487.00 100.00
C 476.21 99.12 464.16 101.71 454.30 101.31 C 444.44 100.90 443.73 107.44 438.00 114.00
C 436.89 105.38 441.30 98.28 442.00 90.00
C 471.77 97.02 518.45 94.00 549.00 92.00
M 1049.00 201.00 
C 1051.60 190.55 1049.09 178.20 1048.67 167.33 C 1048.25 156.46 1048.82 144.17 1048.33 133.33 C 1047.84 122.49 1046.72 114.03 1047.20 103.75 C 1047.67 93.48 1031.95 98.24 1032.00 92.00
C 1038.14 91.37 1047.01 93.35 1053.07 93.93 C 1059.13 94.50 1067.97 88.36 1071.00 95.00
C 1066.27 96.01 1064.34 95.52 1060.00 97.00
C 1058.67 116.49 1058.37 137.63 1058.00 159.00 C 1057.63 180.37 1057.89 205.15 1058.00 226.00
C 1048.24 221.41 1039.22 209.07 1029.75 200.25 C 1020.29 191.42 1009.92 180.85 1001.25 171.75 C 992.59 162.64 984.98 153.10 976.30 144.70 C 967.63 136.30 961.53 125.03 952.00 118.00
C 953.46 137.79 953.83 163.12 954.93 182.07 C 956.02 201.02 949.82 223.84 972.00 222.00
C 968.44 227.19 958.91 223.88 952.00 224.00 C 945.09 224.13 936.36 225.62 930.00 224.00
C 938.81 220.28 944.38 220.89 943.93 208.92 C 943.49 196.94 944.35 183.01 944.00 170.00 C 943.65 156.99 944.36 142.18 944.00 129.00 C 943.64 115.82 945.19 102.47 945.00 90.00
C 957.52 99.56 968.01 112.03 979.75 124.25 C 991.50 136.46 1002.68 151.01 1014.77 163.23 C 1026.86 175.45 1037.32 187.20 1049.00 201.00
M 295.00 91.00 
C 293.27 95.27 294.72 99.09 293.22 103.22 C 291.72 107.35 295.10 116.08 289.00 114.00
C 291.61 95.08 266.15 99.70 251.00 100.00
C 253.32 116.50 251.34 134.08 252.00 151.00
C 266.21 149.06 282.14 155.22 291.00 145.00
C 290.82 152.66 291.98 166.38 287.00 172.00
C 289.98 152.45 265.58 159.81 252.00 157.00
C 250.63 165.61 250.64 181.75 251.00 192.00 C 251.36 202.25 250.00 213.30 257.30 216.71 C 264.61 220.12 278.94 217.23 286.75 216.41 C 294.56 215.59 293.71 204.39 299.00 201.00
C 298.42 208.70 297.11 217.73 296.00 224.00
C 272.92 227.82 246.44 223.37 224.00 224.00
C 225.25 220.64 230.59 222.09 234.00 221.00
C 235.20 215.11 237.08 209.43 237.00 200.00 C 236.92 190.57 236.91 178.55 237.00 168.00 C 237.09 157.45 236.69 144.70 237.00 134.00 C 237.31 123.30 236.44 113.03 236.40 103.26 C 236.36 93.48 223.53 98.89 223.00 92.00
C 245.90 93.77 273.79 95.49 295.00 91.00
M 47.00 93.00 
C 45.63 97.88 37.87 93.38 35.00 98.00
C 41.40 132.07 53.35 166.22 62.00 201.00
C 67.71 188.14 70.23 177.31 75.19 164.75 C 80.16 152.19 84.27 140.92 89.13 129.08 C 93.99 117.24 95.94 102.71 105.00 93.00
C 117.20 128.47 130.52 162.96 142.00 200.00
C 147.08 192.47 148.32 182.83 151.26 174.25 C 154.21 165.67 156.28 157.63 159.13 149.08 C 161.99 140.54 164.33 131.33 166.21 122.77 C 168.09 114.21 176.58 103.82 168.00 95.00
C 165.69 96.55 159.84 97.08 160.00 93.00
C 171.89 92.40 186.43 93.70 198.00 92.00
C 195.45 96.80 185.12 96.46 183.87 102.92 C 182.62 109.38 178.71 112.51 177.24 119.25 C 175.78 125.98 173.63 130.88 171.24 137.25 C 168.86 143.61 168.49 149.32 165.88 154.90 C 163.27 160.48 163.16 166.67 160.65 172.70 C 158.14 178.73 156.65 184.54 154.61 190.75 C 152.56 196.96 150.46 201.78 148.81 208.25 C 147.15 214.72 143.48 219.95 142.00 227.00
C 132.82 223.07 132.84 211.84 128.87 203.08 C 124.90 194.32 123.28 184.61 119.81 175.75 C 116.34 166.88 113.07 157.89 109.87 149.08 C 106.67 140.28 103.83 130.12 100.00 121.00
C 98.17 129.92 93.27 135.80 91.29 143.30 C 89.31 150.79 85.87 157.28 83.29 164.30 C 80.71 171.33 78.53 178.73 75.29 185.30 C 72.05 191.87 71.80 200.45 67.74 206.75 C 63.67 213.05 65.60 224.20 56.00 227.00
C 54.10 221.97 52.11 215.12 50.41 209.25 C 48.71 203.38 46.81 197.99 45.20 191.75 C 43.58 185.52 41.23 179.93 39.24 173.75 C 37.26 167.58 36.67 161.82 34.79 155.77 C 32.90 149.71 30.27 144.12 28.87 138.08 C 27.47 132.05 25.08 126.26 23.23 119.77 C 21.38 113.28 20.55 109.28 17.87 103.08 C 15.19 96.89 5.79 95.69 1.00 93.00
C 15.34 92.78 32.43 92.96 47.00 93.00
M 671.00 93.00 
C 669.63 97.88 661.87 93.38 659.00 98.00
C 665.80 132.91 677.36 166.04 686.00 201.00
C 691.76 188.75 694.42 176.23 699.19 164.75 C 703.97 153.28 708.26 140.70 713.13 129.08 C 718.00 117.47 719.85 103.17 729.00 93.00
C 741.39 128.68 754.56 163.01 766.00 200.00
C 772.52 189.89 773.52 176.83 777.21 165.77 C 780.91 154.71 785.35 144.37 788.26 132.25 C 791.18 120.13 796.97 109.97 795.00 96.00
C 792.29 95.03 784.84 98.25 784.00 93.00
C 795.84 92.35 810.49 93.64 822.00 92.00
C 819.49 96.89 809.07 96.33 807.87 102.92 C 806.67 109.50 802.65 112.59 801.24 119.25 C 799.84 125.91 797.34 131.01 795.24 137.25 C 793.14 143.48 792.66 149.24 789.88 154.90 C 787.11 160.56 787.40 166.32 784.61 172.75 C 781.81 179.18 780.85 184.18 778.61 190.75 C 776.36 197.32 774.60 202.37 772.81 208.25 C 771.02 214.14 767.71 220.04 766.00 227.00
C 756.39 223.26 757.27 211.97 753.61 203.25 C 749.94 194.53 746.74 185.46 743.29 176.70 C 739.83 167.94 738.09 158.15 734.81 149.75 C 731.52 141.36 727.72 131.79 725.00 123.00
C 720.40 129.04 717.88 136.63 715.43 143.77 C 712.97 150.90 709.90 158.14 707.42 164.77 C 704.95 171.40 702.31 179.16 699.24 186.25 C 696.18 193.33 695.33 200.57 691.29 207.30 C 687.26 214.03 689.81 224.34 680.00 227.00
C 677.65 220.66 676.67 215.95 674.36 209.30 C 672.05 202.64 672.01 198.91 669.61 191.25 C 667.20 183.59 666.51 183.55 663.69 173.30 C 660.87 163.05 655.91 148.26 653.20 137.75 C 650.49 127.25 649.34 128.51 647.09 119.90 C 644.85 111.29 644.70 110.12 641.87 103.08 C 639.05 96.04 630.15 96.38 625.00 93.00
C 639.09 91.47 656.56 93.67 671.00 93.00
M 892.00 93.00 
C 889.01 97.58 879.69 94.56 879.41 102.75 C 879.13 110.94 878.91 119.15 879.00 129.00 C 879.09 138.85 878.82 151.11 879.00 161.00 C 879.18 170.89 878.60 182.48 879.00 192.00 C 879.40 201.52 879.87 207.86 880.60 215.75 C 881.34 223.64 892.61 218.92 896.00 225.00
C 881.53 223.63 865.00 225.33 851.00 224.00
C 853.81 220.53 858.25 221.51 861.00 221.00
C 864.76 202.44 865.38 171.98 864.00 151.00 C 862.62 130.02 872.50 96.85 851.00 95.00
C 854.28 88.65 864.82 93.92 871.22 93.78 C 877.62 93.64 886.05 91.41 892.00 93.00 Z"/>
</g>
<g fill="None" fill-opacity="0.0" stroke="#000000" stroke-opacity="0.91" stroke-width="0.3"><path d="
M 565.00 5.00 
C 548.19 8.56 527.32 7.86 511.00 5.00
C 510.06 8.88 509.04 11.70 508.00 16.00
C 512.79 8.58 523.06 10.09 534.00 10.00
C 533.76 28.62 534.70 48.51 533.00 66.00
C 530.66 65.39 529.78 66.52 527.00 67.00
C 532.34 69.33 544.45 69.82 549.00 67.00
C 537.36 66.46 542.97 54.17 542.00 44.00 C 541.03 33.83 543.55 19.11 541.00 9.00
C 548.85 12.11 565.20 6.58 563.00 17.00
C 568.03 16.35 566.13 8.30 565.00 5.00 Z"/>
</g>
<g fill="None" fill-opacity="0.0" stroke="#000000" stroke-opacity="0.95" stroke-width="0.3"><path d="
M 603.00 9.00 
C 598.22 6.24 586.67 4.17 581.00 8.00
C 584.53 8.24 586.43 8.36 589.00 10.00
C 588.53 19.78 589.52 33.76 589.00 44.00 C 588.48 54.24 591.82 66.06 582.00 68.00
C 589.84 68.25 600.38 69.68 607.00 67.00
C 592.53 68.35 600.70 46.58 598.00 36.00
C 610.00 36.00 622.00 36.00 634.00 36.00
C 631.90 45.79 639.21 64.80 628.00 67.00
C 633.30 68.82 646.71 70.52 650.00 66.00
C 646.37 66.71 644.59 66.79 642.00 65.00
C 642.19 47.71 641.94 27.30 642.00 10.00
C 644.45 9.34 645.35 7.29 648.00 9.00
C 644.44 5.02 632.50 6.00 626.00 7.00
C 627.71 10.31 631.36 7.00 634.00 10.00
C 632.16 16.61 638.80 33.40 628.00 33.00 C 617.20 32.60 608.60 33.30 598.00 33.00
C 597.15 25.73 599.33 16.74 598.00 11.00
C 599.62 9.25 600.50 7.71 603.00 9.00 Z"/>
</g>
<g fill="None" fill-opacity="0.0" stroke="#000000" stroke-opacity="0.90" stroke-width="0.3"><path d="
M 714.00 6.00 
C 698.90 9.86 679.38 3.27 665.00 8.00
C 667.90 7.18 670.50 10.33 673.00 8.00
C 676.92 15.75 675.03 28.97 675.00 39.00 C 674.97 49.03 677.67 60.67 672.00 67.00
C 670.99 66.20 668.58 65.83 667.00 67.00
C 680.54 69.10 698.63 68.66 713.00 69.00
C 715.31 65.07 715.30 61.63 716.00 57.00
C 711.55 66.85 695.37 66.94 685.00 62.00
C 686.48 54.18 686.77 44.81 685.00 37.00
C 694.43 38.12 706.21 34.11 710.00 43.00
C 710.51 38.21 711.10 34.60 711.00 31.00
C 705.16 35.65 693.94 33.40 685.00 34.00
C 685.00 26.00 685.00 18.00 685.00 10.00
C 694.94 11.07 708.39 7.10 711.00 17.00
C 713.91 13.42 711.20 8.90 714.00 6.00 Z"/>
</g>
<g fill="None" fill-opacity="0.0" stroke="#BA0E0E" stroke-opacity="1.00" stroke-width="0.3"><path d="
M 501.00 63.00 
C 491.04 63.00 480.95 63.00 471.00 63.00 C 461.05 63.00 450.90 63.00 441.00 63.00 C 431.10 63.00 421.89 63.00 412.00 63.00 C 402.11 63.00 391.92 63.00 382.00 63.00 C 372.08 63.00 361.89 63.00 352.00 63.00 C 342.11 63.00 332.89 63.00 323.00 63.00 C 313.11 63.00 302.91 63.00 293.00 63.00 C 283.09 63.00 272.88 63.00 263.00 63.00 C 253.12 63.00 243.88 63.00 234.00 63.00 C 224.12 63.00 213.91 62.99 204.00 63.00 C 194.09 63.01 183.87 62.98 174.00 63.00 C 164.13 63.02 154.84 62.96 145.00 63.00 C 135.16 63.04 124.82 62.92 115.00 63.00 C 105.18 63.08 94.68 62.83 85.00 63.00 C 75.32 63.17 65.42 62.60 56.00 63.00 C 46.58 63.40 34.91 62.15 26.00 63.00 C 17.09 63.85 3.35 58.90 2.00 68.00
C 11.96 68.00 22.05 68.00 32.00 68.00 C 41.95 68.00 52.10 68.00 62.00 68.00 C 71.90 68.00 81.11 68.00 91.00 68.00 C 100.89 68.00 111.08 68.00 121.00 68.00 C 130.92 68.00 141.11 68.00 151.00 68.00 C 160.89 68.00 170.11 68.00 180.00 68.00 C 189.89 68.00 200.09 68.00 210.00 68.00 C 219.91 68.00 230.12 68.00 240.00 68.00 C 249.88 68.00 259.12 68.00 269.00 68.00 C 278.88 68.00 289.09 68.01 299.00 68.00 C 308.91 67.99 319.13 68.02 329.00 68.00 C 338.87 67.98 348.16 68.04 358.00 68.00 C 367.84 67.96 378.18 68.08 388.00 68.00 C 397.82 67.92 408.32 68.17 418.00 68.00 C 427.68 67.83 437.58 68.40 447.00 68.00 C 456.42 67.60 468.09 68.85 477.00 68.00 C 485.91 67.15 499.65 72.10 501.00 63.00 Z"/>
</g>
<g fill="None" fill-opacity="0.0" stroke="#BA0E0E" stroke-opacity="1.00" stroke-width="0.3"><path d="
M 1228.00 63.00 
C 1217.71 63.00 1207.28 63.00 1197.00 63.00 C 1186.72 63.00 1176.22 63.00 1166.00 63.00 C 1155.78 63.00 1146.20 63.00 1136.00 63.00 C 1125.80 63.00 1115.19 63.00 1105.00 63.00 C 1094.81 63.00 1085.18 63.00 1075.00 63.00 C 1064.82 63.00 1054.19 63.00 1044.00 63.00 C 1033.81 63.00 1024.20 63.00 1014.00 63.00 C 1003.80 63.00 993.23 63.00 983.00 63.00 C 972.77 63.00 962.20 62.99 952.00 63.00 C 941.80 63.01 932.17 62.98 922.00 63.00 C 911.83 63.02 901.14 62.96 891.00 63.00 C 880.86 63.04 871.09 62.92 861.00 63.00 C 850.91 63.08 839.98 62.82 830.00 63.00 C 820.02 63.18 809.73 62.59 800.00 63.00 C 790.27 63.41 778.22 62.12 769.00 63.00 C 759.78 63.88 745.63 58.83 744.00 68.00
C 754.29 68.00 764.72 68.00 775.00 68.00 C 785.28 68.00 795.78 68.00 806.00 68.00 C 816.22 68.00 825.80 68.00 836.00 68.00 C 846.20 68.00 856.81 68.00 867.00 68.00 C 877.19 68.00 886.82 68.00 897.00 68.00 C 907.18 68.00 917.81 68.00 928.00 68.00 C 938.19 68.00 947.80 68.00 958.00 68.00 C 968.20 68.00 978.77 68.00 989.00 68.00 C 999.23 68.00 1009.80 68.01 1020.00 68.00 C 1030.20 67.99 1039.83 68.02 1050.00 68.00 C 1060.17 67.98 1070.86 68.04 1081.00 68.00 C 1091.14 67.96 1100.91 68.08 1111.00 68.00 C 1121.09 67.92 1132.02 68.18 1142.00 68.00 C 1151.98 67.82 1162.27 68.41 1172.00 68.00 C 1181.73 67.59 1193.78 68.88 1203.00 68.00 C 1212.22 67.12 1226.37 72.17 1228.00 63.00 Z"/>
</g>
<g fill="None" fill-opacity="0.0" stroke="#000000" stroke-opacity="0.95" stroke-width="0.3"><path d="
M 407.00 93.00 
C 398.65 93.24 395.76 89.69 387.00 90.00 C 378.24 90.31 371.10 89.68 364.75 93.41 C 358.40 97.14 354.06 97.68 349.39 106.25 C 344.73 114.81 346.12 134.58 351.30 141.70 C 356.48 148.81 357.96 150.35 364.75 155.25 C 371.54 160.15 374.06 165.71 380.25 169.75 C 386.43 173.80 390.60 179.77 393.42 184.23 C 396.25 188.69 397.52 197.59 395.40 203.25 C 393.28 208.92 392.04 213.20 386.25 216.81 C 380.47 220.42 373.74 220.68 366.25 219.80 C 358.75 218.92 357.42 216.92 351.25 211.75 C 345.07 206.59 348.46 198.86 343.00 194.00
C 342.53 202.77 342.41 212.38 342.00 221.00
C 348.14 224.74 354.99 226.31 363.33 226.67 C 371.67 227.03 383.50 226.22 388.70 223.71 C 393.89 221.21 401.81 214.98 404.81 209.25 C 407.81 203.52 410.25 195.67 409.98 187.03 C 409.70 178.38 405.73 173.96 402.19 168.25 C 398.66 162.54 392.39 155.00 385.92 151.13 C 379.44 147.26 374.37 140.70 367.25 134.75 C 360.13 128.81 356.79 121.42 358.20 113.25 C 359.60 105.08 363.27 100.94 371.25 97.40 C 379.24 93.86 387.77 97.98 395.08 99.91 C 402.40 101.85 400.51 113.94 406.00 117.00
C 403.79 109.09 407.23 100.49 407.00 93.00 Z"/>
</g>
<g fill="None" fill-opacity="0.0" stroke="#000000" stroke-opacity="0.96" stroke-width="0.3"><path d="
M 549.00 92.00 
C 518.45 94.00 471.77 97.02 442.00 90.00
C 441.30 98.28 436.89 105.38 438.00 114.00
C 443.73 107.44 444.44 100.90 454.30 101.31 C 464.16 101.71 476.21 99.12 487.00 100.00
C 487.10 109.89 486.86 120.15 487.00 130.00 C 487.14 139.85 486.74 150.29 487.00 160.00 C 487.26 169.71 486.71 179.07 486.33 188.33 C 485.95 197.59 485.77 204.62 485.21 212.77 C 484.65 220.92 478.63 220.51 474.00 225.00
C 488.03 222.59 504.77 225.99 519.00 224.00
C 510.26 220.13 503.65 222.62 502.40 211.74 C 501.15 200.87 501.28 189.14 502.00 177.00 C 502.72 164.86 501.82 150.42 502.00 138.00 C 502.18 125.58 502.69 112.05 501.00 100.00
C 511.03 101.29 523.36 100.48 532.75 101.80 C 542.15 103.13 544.26 106.86 547.00 116.00
C 547.29 108.59 549.42 100.24 549.00 92.00 Z"/>
</g>
<g fill="None" fill-opacity="0.0" stroke="#000000" stroke-opacity="0.96" stroke-width="0.3"><path d="
M 1049.00 201.00 
C 1037.32 187.20 1026.86 175.45 1014.77 163.23 C 1002.68 151.01 991.50 136.46 979.75 124.25 C 968.01 112.03 957.52 99.56 945.00 90.00
C 945.19 102.47 943.64 115.82 944.00 129.00 C 944.36 142.18 943.65 156.99 944.00 170.00 C 944.35 183.01 943.49 196.94 943.93 208.92 C 944.38 220.89 938.81 220.28 930.00 224.00
C 936.36 225.62 945.09 224.13 952.00 224.00 C 958.91 223.88 968.44 227.19 972.00 222.00
C 949.82 223.84 956.02 201.02 954.93 182.07 C 953.83 163.12 953.46 137.79 952.00 118.00
C 961.53 125.03 967.63 136.30 976.30 144.70 C 984.98 153.10 992.59 162.64 1001.25 171.75 C 1009.92 180.85 1020.29 191.42 1029.75 200.25 C 1039.22 209.07 1048.24 221.41 1058.00 226.00
C 1057.89 205.15 1057.63 180.37 1058.00 159.00 C 1058.37 137.63 1058.67 116.49 1060.00 97.00
C 1064.34 95.52 1066.27 96.01 1071.00 95.00
C 1067.97 88.36 1059.13 94.50 1053.07 93.93 C 1047.01 93.35 1038.14 91.37 1032.00 92.00
C 1031.95 98.24 1047.67 93.48 1047.20 103.75 C 1046.72 114.03 1047.84 122.49 1048.33 133.33 C 1048.82 144.17 1048.25 156.46 1048.67 167.33 C 1049.09 178.20 1051.60 190.55 1049.00 201.00 Z"/>
</g>
<g fill="None" fill-opacity="0.0" stroke="#000000" stroke-opacity="0.96" stroke-width="0.3"><path d="
M 1232.00 161.00 
L 1232.00 159.00
C 1219.02 159.61 1204.46 160.00 1192.00 159.00
C 1195.65 164.62 1205.60 160.15 1206.22 169.78 C 1206.84 179.41 1206.43 190.86 1207.00 201.00 C 1207.57 211.14 1205.67 215.94 1198.75 217.41 C 1191.84 218.88 1182.79 220.24 1175.70 218.35 C 1168.60 216.46 1163.45 217.52 1158.30 214.71 C 1153.16 211.91 1149.89 209.85 1144.92 206.13 C 1139.94 202.41 1134.72 197.18 1131.19 192.25 C 1127.66 187.33 1126.73 182.67 1124.19 177.25 C 1121.65 171.84 1121.44 166.37 1120.99 159.01 C 1120.54 151.65 1119.92 142.10 1121.81 136.25 C 1123.69 130.40 1123.90 125.68 1126.89 120.89 C 1129.89 116.11 1133.94 109.24 1139.97 105.97 C 1145.99 102.70 1150.19 100.12 1156.77 98.21 C 1163.35 96.30 1173.96 97.04 1181.25 97.60 C 1188.54 98.16 1192.88 98.54 1198.90 100.09 C 1204.92 101.65 1207.43 105.08 1213.25 109.75 C 1219.08 114.41 1216.43 121.67 1222.00 125.00
C 1219.26 118.15 1225.76 103.07 1222.97 97.03 C 1220.17 91.00 1209.40 95.24 1203.75 92.60 C 1198.10 89.97 1190.62 90.63 1183.00 91.00 C 1175.38 91.37 1164.90 89.26 1158.25 91.24 C 1151.60 93.23 1147.43 94.31 1141.23 97.23 C 1135.03 100.15 1130.31 102.84 1124.75 107.75 C 1119.19 112.66 1115.94 118.97 1112.77 124.77 C 1109.60 130.57 1107.81 135.51 1106.39 141.25 C 1104.98 146.98 1104.13 156.05 1104.98 162.97 C 1105.83 169.90 1105.79 175.21 1108.20 180.75 C 1110.61 186.29 1112.30 193.30 1116.10 197.90 C 1119.90 202.50 1125.87 210.44 1131.25 213.61 C 1136.62 216.78 1139.72 218.35 1144.75 220.81 C 1149.78 223.26 1155.29 223.95 1161.25 225.60 C 1167.21 227.26 1179.30 227.03 1186.98 226.98 C 1194.66 226.92 1200.12 225.64 1206.23 224.58 C 1212.34 223.51 1216.71 220.12 1222.00 218.00
C 1221.95 207.26 1221.92 191.01 1222.01 180.01 C 1222.10 169.01 1222.31 163.50 1232.00 161.00 Z"/>
</g>
<g fill="None" fill-opacity="0.0" stroke="#000000" stroke-opacity="0.96" stroke-width="0.3"><path d="
M 295.00 91.00 
C 273.79 95.49 245.90 93.77 223.00 92.00
C 223.53 98.89 236.36 93.48 236.40 103.26 C 236.44 113.03 237.31 123.30 237.00 134.00 C 236.69 144.70 237.09 157.45 237.00 168.00 C 236.91 178.55 236.92 190.57 237.00 200.00 C 237.08 209.43 235.20 215.11 234.00 221.00
C 230.59 222.09 225.25 220.64 224.00 224.00
C 246.44 223.37 272.92 227.82 296.00 224.00
C 297.11 217.73 298.42 208.70 299.00 201.00
C 293.71 204.39 294.56 215.59 286.75 216.41 C 278.94 217.23 264.61 220.12 257.30 216.71 C 250.00 213.30 251.36 202.25 251.00 192.00 C 250.64 181.75 250.63 165.61 252.00 157.00
C 265.58 159.81 289.98 152.45 287.00 172.00
C 291.98 166.38 290.82 152.66 291.00 145.00
C 282.14 155.22 266.21 149.06 252.00 151.00
C 251.34 134.08 253.32 116.50 251.00 100.00
C 266.15 99.70 291.61 95.08 289.00 114.00
C 295.10 116.08 291.72 107.35 293.22 103.22 C 294.72 99.09 293.27 95.27 295.00 91.00 Z"/>
</g>
<g fill="None" fill-opacity="0.0" stroke="#000000" stroke-opacity="0.95" stroke-width="0.3"><path d="
M 47.00 93.00 
C 32.43 92.96 15.34 92.78 1.00 93.00
C 5.79 95.69 15.19 96.89 17.87 103.08 C 20.55 109.28 21.38 113.28 23.23 119.77 C 25.08 126.26 27.47 132.05 28.87 138.08 C 30.27 144.12 32.90 149.71 34.79 155.77 C 36.67 161.82 37.26 167.58 39.24 173.75 C 41.23 179.93 43.58 185.52 45.20 191.75 C 46.81 197.99 48.71 203.38 50.41 209.25 C 52.11 215.12 54.10 221.97 56.00 227.00
C 65.60 224.20 63.67 213.05 67.74 206.75 C 71.80 200.45 72.05 191.87 75.29 185.30 C 78.53 178.73 80.71 171.33 83.29 164.30 C 85.87 157.28 89.31 150.79 91.29 143.30 C 93.27 135.80 98.17 129.92 100.00 121.00
C 103.83 130.12 106.67 140.28 109.87 149.08 C 113.07 157.89 116.34 166.88 119.81 175.75 C 123.28 184.61 124.90 194.32 128.87 203.08 C 132.84 211.84 132.82 223.07 142.00 227.00
C 143.48 219.95 147.15 214.72 148.81 208.25 C 150.46 201.78 152.56 196.96 154.61 190.75 C 156.65 184.54 158.14 178.73 160.65 172.70 C 163.16 166.67 163.27 160.48 165.88 154.90 C 168.49 149.32 168.86 143.61 171.24 137.25 C 173.63 130.88 175.78 125.98 177.24 119.25 C 178.71 112.51 182.62 109.38 183.87 102.92 C 185.12 96.46 195.45 96.80 198.00 92.00
C 186.43 93.70 171.89 92.40 160.00 93.00
C 159.84 97.08 165.69 96.55 168.00 95.00
C 176.58 103.82 168.09 114.21 166.21 122.77 C 164.33 131.33 161.99 140.54 159.13 149.08 C 156.28 157.63 154.21 165.67 151.26 174.25 C 148.32 182.83 147.08 192.47 142.00 200.00
C 130.52 162.96 117.20 128.47 105.00 93.00
C 95.94 102.71 93.99 117.24 89.13 129.08 C 84.27 140.92 80.16 152.19 75.19 164.75 C 70.23 177.31 67.71 188.14 62.00 201.00
C 53.35 166.22 41.40 132.07 35.00 98.00
C 37.87 93.38 45.63 97.88 47.00 93.00 Z"/>
</g>
<g fill="None" fill-opacity="0.0" stroke="#000000" stroke-opacity="0.95" stroke-width="0.3"><path d="
M 671.00 93.00 
C 656.56 93.67 639.09 91.47 625.00 93.00
C 630.15 96.38 639.05 96.04 641.87 103.08 C 644.70 110.12 644.85 111.29 647.09 119.90 C 649.34 128.51 650.49 127.25 653.20 137.75 C 655.91 148.26 660.87 163.05 663.69 173.30 C 666.51 183.55 667.20 183.59 669.61 191.25 C 672.01 198.91 672.05 202.64 674.36 209.30 C 676.67 215.95 677.65 220.66 680.00 227.00
C 689.81 224.34 687.26 214.03 691.29 207.30 C 695.33 200.57 696.18 193.33 699.24 186.25 C 702.31 179.16 704.95 171.40 707.42 164.77 C 709.90 158.14 712.97 150.90 715.43 143.77 C 717.88 136.63 720.40 129.04 725.00 123.00
C 727.72 131.79 731.52 141.36 734.81 149.75 C 738.09 158.15 739.83 167.94 743.29 176.70 C 746.74 185.46 749.94 194.53 753.61 203.25 C 757.27 211.97 756.39 223.26 766.00 227.00
C 767.71 220.04 771.02 214.14 772.81 208.25 C 774.60 202.37 776.36 197.32 778.61 190.75 C 780.85 184.18 781.81 179.18 784.61 172.75 C 787.40 166.32 787.11 160.56 789.88 154.90 C 792.66 149.24 793.14 143.48 795.24 137.25 C 797.34 131.01 799.84 125.91 801.24 119.25 C 802.65 112.59 806.67 109.50 807.87 102.92 C 809.07 96.33 819.49 96.89 822.00 92.00
C 810.49 93.64 795.84 92.35 784.00 93.00
C 784.84 98.25 792.29 95.03 795.00 96.00
C 796.97 109.97 791.18 120.13 788.26 132.25 C 785.35 144.37 780.91 154.71 777.21 165.77 C 773.52 176.83 772.52 189.89 766.00 200.00
C 754.56 163.01 741.39 128.68 729.00 93.00
C 719.85 103.17 718.00 117.47 713.13 129.08 C 708.26 140.70 703.97 153.28 699.19 164.75 C 694.42 176.23 691.76 188.75 686.00 201.00
C 677.36 166.04 665.80 132.91 659.00 98.00
C 661.87 93.38 669.63 97.88 671.00 93.00 Z"/>
</g>
<g fill="None" fill-opacity="0.0" stroke="#000000" stroke-opacity="0.98" stroke-width="0.3"><path d="
M 892.00 93.00 
C 886.05 91.41 877.62 93.64 871.22 93.78 C 864.82 93.92 854.28 88.65 851.00 95.00
C 872.50 96.85 862.62 130.02 864.00 151.00 C 865.38 171.98 864.76 202.44 861.00 221.00
C 858.25 221.51 853.81 220.53 851.00 224.00
C 865.00 225.33 881.53 223.63 896.00 225.00
C 892.61 218.92 881.34 223.64 880.60 215.75 C 879.87 207.86 879.40 201.52 879.00 192.00 C 878.60 182.48 879.18 170.89 879.00 161.00 C 878.82 151.11 879.09 138.85 879.00 129.00 C 878.91 119.15 879.13 110.94 879.41 102.75 C 879.69 94.56 889.01 97.58 892.00 93.00 Z"/>
</g>
<g fill="#000000" fill-opacity="0.01" stroke="None">
<path d="
M 0.00 228.00 
L 1232.00 228.00
L 1232.00 161.00
C 1222.31 163.50 1222.10 169.01 1222.01 180.01 C 1221.92 191.01 1221.95 207.26 1222.00 218.00
C 1216.71 220.12 1212.34 223.51 1206.23 224.58 C 1200.12 225.64 1194.66 226.92 1186.98 226.98 C 1179.30 227.03 1167.21 227.26 1161.25 225.60 C 1155.29 223.95 1149.78 223.26 1144.75 220.81 C 1139.72 218.35 1136.62 216.78 1131.25 213.61 C 1125.87 210.44 1119.90 202.50 1116.10 197.90 C 1112.30 193.30 1110.61 186.29 1108.20 180.75 C 1105.79 175.21 1105.83 169.90 1104.98 162.97 C 1104.13 156.05 1104.98 146.98 1106.39 141.25 C 1107.81 135.51 1109.60 130.57 1112.77 124.77 C 1115.94 118.97 1119.19 112.66 1124.75 107.75 C 1130.31 102.84 1135.03 100.15 1141.23 97.23 C 1147.43 94.31 1151.60 93.23 1158.25 91.24 C 1164.90 89.26 1175.38 91.37 1183.00 91.00 C 1190.62 90.63 1198.10 89.97 1203.75 92.60 C 1209.40 95.24 1220.17 91.00 1222.97 97.03 C 1225.76 103.07 1219.26 118.15 1222.00 125.00
C 1216.43 121.67 1219.08 114.41 1213.25 109.75 C 1207.43 105.08 1204.92 101.65 1198.90 100.09 C 1192.88 98.54 1188.54 98.16 1181.25 97.60 C 1173.96 97.04 1163.35 96.30 1156.77 98.21 C 1150.19 100.12 1145.99 102.70 1139.97 105.97 C 1133.94 109.24 1129.89 116.11 1126.89 120.89 C 1123.90 125.68 1123.69 130.40 1121.81 136.25 C 1119.92 142.10 1120.54 151.65 1120.99 159.01 C 1121.44 166.37 1121.65 171.84 1124.19 177.25 C 1126.73 182.67 1127.66 187.33 1131.19 192.25 C 1134.72 197.18 1139.94 202.41 1144.92 206.13 C 1149.89 209.85 1153.16 211.91 1158.30 214.71 C 1163.45 217.52 1168.60 216.46 1175.70 218.35 C 1182.79 220.24 1191.84 218.88 1198.75 217.41 C 1205.67 215.94 1207.57 211.14 1207.00 201.00 C 1206.43 190.86 1206.84 179.41 1206.22 169.78 C 1205.60 160.15 1195.65 164.62 1192.00 159.00
C 1204.46 160.00 1219.02 159.61 1232.00 159.00
L 1232.00 0.00
L 0.00 0.00
L 0.00 228.00
M 565.00 5.00 
C 566.13 8.30 568.03 16.35 563.00 17.00
C 565.20 6.58 548.85 12.11 541.00 9.00
C 543.55 19.11 541.03 33.83 542.00 44.00 C 542.97 54.17 537.36 66.46 549.00 67.00
C 544.45 69.82 532.34 69.33 527.00 67.00
C 529.78 66.52 530.66 65.39 533.00 66.00
C 534.70 48.51 533.76 28.62 534.00 10.00
C 523.06 10.09 512.79 8.58 508.00 16.00
C 509.04 11.70 510.06 8.88 511.00 5.00
C 527.32 7.86 548.19 8.56 565.00 5.00
M 603.00 9.00 
C 600.50 7.71 599.62 9.25 598.00 11.00
C 599.33 16.74 597.15 25.73 598.00 33.00
C 608.60 33.30 617.20 32.60 628.00 33.00 C 638.80 33.40 632.16 16.61 634.00 10.00
C 631.36 7.00 627.71 10.31 626.00 7.00
C 632.50 6.00 644.44 5.02 648.00 9.00
C 645.35 7.29 644.45 9.34 642.00 10.00
C 641.94 27.30 642.19 47.71 642.00 65.00
C 644.59 66.79 646.37 66.71 650.00 66.00
C 646.71 70.52 633.30 68.82 628.00 67.00
C 639.21 64.80 631.90 45.79 634.00 36.00
C 622.00 36.00 610.00 36.00 598.00 36.00
C 600.70 46.58 592.53 68.35 607.00 67.00
C 600.38 69.68 589.84 68.25 582.00 68.00
C 591.82 66.06 588.48 54.24 589.00 44.00 C 589.52 33.76 588.53 19.78 589.00 10.00
C 586.43 8.36 584.53 8.24 581.00 8.00
C 586.67 4.17 598.22 6.24 603.00 9.00
M 714.00 6.00 
C 711.20 8.90 713.91 13.42 711.00 17.00
C 708.39 7.10 694.94 11.07 685.00 10.00
C 685.00 18.00 685.00 26.00 685.00 34.00
C 693.94 33.40 705.16 35.65 711.00 31.00
C 711.10 34.60 710.51 38.21 710.00 43.00
C 706.21 34.11 694.43 38.12 685.00 37.00
C 686.77 44.81 686.48 54.18 685.00 62.00
C 695.37 66.94 711.55 66.85 716.00 57.00
C 715.30 61.63 715.31 65.07 713.00 69.00
C 698.63 68.66 680.54 69.10 667.00 67.00
C 668.58 65.83 670.99 66.20 672.00 67.00
C 677.67 60.67 674.97 49.03 675.00 39.00 C 675.03 28.97 676.92 15.75 673.00 8.00
C 670.50 10.33 667.90 7.18 665.00 8.00
C 679.38 3.27 698.90 9.86 714.00 6.00
M 501.00 63.00 
C 499.65 72.10 485.91 67.15 477.00 68.00 C 468.09 68.85 456.42 67.60 447.00 68.00 C 437.58 68.40 427.68 67.83 418.00 68.00 C 408.32 68.17 397.82 67.92 388.00 68.00 C 378.18 68.08 367.84 67.96 358.00 68.00 C 348.16 68.04 338.87 67.98 329.00 68.00 C 319.13 68.02 308.91 67.99 299.00 68.00 C 289.09 68.01 278.88 68.00 269.00 68.00 C 259.12 68.00 249.88 68.00 240.00 68.00 C 230.12 68.00 219.91 68.00 210.00 68.00 C 200.09 68.00 189.89 68.00 180.00 68.00 C 170.11 68.00 160.89 68.00 151.00 68.00 C 141.11 68.00 130.92 68.00 121.00 68.00 C 111.08 68.00 100.89 68.00 91.00 68.00 C 81.11 68.00 71.90 68.00 62.00 68.00 C 52.10 68.00 41.95 68.00 32.00 68.00 C 22.05 68.00 11.96 68.00 2.00 68.00
C 3.35 58.90 17.09 63.85 26.00 63.00 C 34.91 62.15 46.58 63.40 56.00 63.00 C 65.42 62.60 75.32 63.17 85.00 63.00 C 94.68 62.83 105.18 63.08 115.00 63.00 C 124.82 62.92 135.16 63.04 145.00 63.00 C 154.84 62.96 164.13 63.02 174.00 63.00 C 183.87 62.98 194.09 63.01 204.00 63.00 C 213.91 62.99 224.12 63.00 234.00 63.00 C 243.88 63.00 253.12 63.00 263.00 63.00 C 272.88 63.00 283.09 63.00 293.00 63.00 C 302.91 63.00 313.11 63.00 323.00 63.00 C 332.89 63.00 342.11 63.00 352.00 63.00 C 361.89 63.00 372.08 63.00 382.00 63.00 C 391.92 63.00 402.11 63.00 412.00 63.00 C 421.89 63.00 431.10 63.00 441.00 63.00 C 450.90 63.00 461.05 63.00 471.00 63.00 C 480.95 63.00 491.04 63.00 501.00 63.00
M 1228.00 63.00 
C 1226.37 72.17 1212.22 67.12 1203.00 68.00 C 1193.78 68.88 1181.73 67.59 1172.00 68.00 C 1162.27 68.41 1151.98 67.82 1142.00 68.00 C 1132.02 68.18 1121.09 67.92 1111.00 68.00 C 1100.91 68.08 1091.14 67.96 1081.00 68.00 C 1070.86 68.04 1060.17 67.98 1050.00 68.00 C 1039.83 68.02 1030.20 67.99 1020.00 68.00 C 1009.80 68.01 999.23 68.00 989.00 68.00 C 978.77 68.00 968.20 68.00 958.00 68.00 C 947.80 68.00 938.19 68.00 928.00 68.00 C 917.81 68.00 907.18 68.00 897.00 68.00 C 886.82 68.00 877.19 68.00 867.00 68.00 C 856.81 68.00 846.20 68.00 836.00 68.00 C 825.80 68.00 816.22 68.00 806.00 68.00 C 795.78 68.00 785.28 68.00 775.00 68.00 C 764.72 68.00 754.29 68.00 744.00 68.00
C 745.63 58.83 759.78 63.88 769.00 63.00 C 778.22 62.12 790.27 63.41 800.00 63.00 C 809.73 62.59 820.02 63.18 830.00 63.00 C 839.98 62.82 850.91 63.08 861.00 63.00 C 871.09 62.92 880.86 63.04 891.00 63.00 C 901.14 62.96 911.83 63.02 922.00 63.00 C 932.17 62.98 941.80 63.01 952.00 63.00 C 962.20 62.99 972.77 63.00 983.00 63.00 C 993.23 63.00 1003.80 63.00 1014.00 63.00 C 1024.20 63.00 1033.81 63.00 1044.00 63.00 C 1054.19 63.00 1064.82 63.00 1075.00 63.00 C 1085.18 63.00 1094.81 63.00 1105.00 63.00 C 1115.19 63.00 1125.80 63.00 1136.00 63.00 C 1146.20 63.00 1155.78 63.00 1166.00 63.00 C 1176.22 63.00 1186.72 63.00 1197.00 63.00 C 1207.28 63.00 1217.71 63.00 1228.00 63.00
M 407.00 93.00 
C 407.23 100.49 403.79 109.09 406.00 117.00
C 400.51 113.94 402.40 101.85 395.08 99.91 C 387.77 97.98 379.24 93.86 371.25 97.40 C 363.27 100.94 359.60 105.08 358.20 113.25 C 356.79 121.42 360.13 128.81 367.25 134.75 C 374.37 140.70 379.44 147.26 385.92 151.13 C 392.39 155.00 398.66 162.54 402.19 168.25 C 405.73 173.96 409.70 178.38 409.98 187.03 C 410.25 195.67 407.81 203.52 404.81 209.25 C 401.81 214.98 393.89 221.21 388.70 223.71 C 383.50 226.22 371.67 227.03 363.33 226.67 C 354.99 226.31 348.14 224.74 342.00 221.00
C 342.41 212.38 342.53 202.77 343.00 194.00
C 348.46 198.86 345.07 206.59 351.25 211.75 C 357.42 216.92 358.75 218.92 366.25 219.80 C 373.74 220.68 380.47 220.42 386.25 216.81 C 392.04 213.20 393.28 208.92 395.40 203.25 C 397.52 197.59 396.25 188.69 393.42 184.23 C 390.60 179.77 386.43 173.80 380.25 169.75 C 374.06 165.71 371.54 160.15 364.75 155.25 C 357.96 150.35 356.48 148.81 351.30 141.70 C 346.12 134.58 344.73 114.81 349.39 106.25 C 354.06 97.68 358.40 97.14 364.75 93.41 C 371.10 89.68 378.24 90.31 387.00 90.00 C 395.76 89.69 398.65 93.24 407.00 93.00
M 549.00 92.00 
C 549.42 100.24 547.29 108.59 547.00 116.00
C 544.26 106.86 542.15 103.13 532.75 101.80 C 523.36 100.48 511.03 101.29 501.00 100.00
C 502.69 112.05 502.18 125.58 502.00 138.00 C 501.82 150.42 502.72 164.86 502.00 177.00 C 501.28 189.14 501.15 200.87 502.40 211.74 C 503.65 222.62 510.26 220.13 519.00 224.00
C 504.77 225.99 488.03 222.59 474.00 225.00
C 478.63 220.51 484.65 220.92 485.21 212.77 C 485.77 204.62 485.95 197.59 486.33 188.33 C 486.71 179.07 487.26 169.71 487.00 160.00 C 486.74 150.29 487.14 139.85 487.00 130.00 C 486.86 120.15 487.10 109.89 487.00 100.00
C 476.21 99.12 464.16 101.71 454.30 101.31 C 444.44 100.90 443.73 107.44 438.00 114.00
C 436.89 105.38 441.30 98.28 442.00 90.00
C 471.77 97.02 518.45 94.00 549.00 92.00
M 1049.00 201.00 
C 1051.60 190.55 1049.09 178.20 1048.67 167.33 C 1048.25 156.46 1048.82 144.17 1048.33 133.33 C 1047.84 122.49 1046.72 114.03 1047.20 103.75 C 1047.67 93.48 1031.95 98.24 1032.00 92.00
C 1038.14 91.37 1047.01 93.35 1053.07 93.93 C 1059.13 94.50 1067.97 88.36 1071.00 95.00
C 1066.27 96.01 1064.34 95.52 1060.00 97.00
C 1058.67 116.49 1058.37 137.63 1058.00 159.00 C 1057.63 180.37 1057.89 205.15 1058.00 226.00
C 1048.24 221.41 1039.22 209.07 1029.75 200.25 C 1020.29 191.42 1009.92 180.85 1001.25 171.75 C 992.59 162.64 984.98 153.10 976.30 144.70 C 967.63 136.30 961.53 125.03 952.00 118.00
C 953.46 137.79 953.83 163.12 954.93 182.07 C 956.02 201.02 949.82 223.84 972.00 222.00
C 968.44 227.19 958.91 223.88 952.00 224.00 C 945.09 224.13 936.36 225.62 930.00 224.00
C 938.81 220.28 944.38 220.89 943.93 208.92 C 943.49 196.94 944.35 183.01 944.00 170.00 C 943.65 156.99 944.36 142.18 944.00 129.00 C 943.64 115.82 945.19 102.47 945.00 90.00
C 957.52 99.56 968.01 112.03 979.75 124.25 C 991.50 136.46 1002.68 151.01 1014.77 163.23 C 1026.86 175.45 1037.32 187.20 1049.00 201.00
M 295.00 91.00 
C 293.27 95.27 294.72 99.09 293.22 103.22 C 291.72 107.35 295.10 116.08 289.00 114.00
C 291.61 95.08 266.15 99.70 251.00 100.00
C 253.32 116.50 251.34 134.08 252.00 151.00
C 266.21 149.06 282.14 155.22 291.00 145.00
C 290.82 152.66 291.98 166.38 287.00 172.00
C 289.98 152.45 265.58 159.81 252.00 157.00
C 250.63 165.61 250.64 181.75 251.00 192.00 C 251.36 202.25 250.00 213.30 257.30 216.71 C 264.61 220.12 278.94 217.23 286.75 216.41 C 294.56 215.59 293.71 204.39 299.00 201.00
C 298.42 208.70 297.11 217.73 296.00 224.00
C 272.92 227.82 246.44 223.37 224.00 224.00
C 225.25 220.64 230.59 222.09 234.00 221.00
C 235.20 215.11 237.08 209.43 237.00 200.00 C 236.92 190.57 236.91 178.55 237.00 168.00 C 237.09 157.45 236.69 144.70 237.00 134.00 C 237.31 123.30 236.44 113.03 236.40 103.26 C 236.36 93.48 223.53 98.89 223.00 92.00
C 245.90 93.77 273.79 95.49 295.00 91.00
M 47.00 93.00 
C 45.63 97.88 37.87 93.38 35.00 98.00
C 41.40 132.07 53.35 166.22 62.00 201.00
C 67.71 188.14 70.23 177.31 75.19 164.75 C 80.16 152.19 84.27 140.92 89.13 129.08 C 93.99 117.24 95.94 102.71 105.00 93.00
C 117.20 128.47 130.52 162.96 142.00 200.00
C 147.08 192.47 148.32 182.83 151.26 174.25 C 154.21 165.67 156.28 157.63 159.13 149.08 C 161.99 140.54 164.33 131.33 166.21 122.77 C 168.09 114.21 176.58 103.82 168.00 95.00
C 165.69 96.55 159.84 97.08 160.00 93.00
C 171.89 92.40 186.43 93.70 198.00 92.00
C 195.45 96.80 185.12 96.46 183.87 102.92 C 182.62 109.38 178.71 112.51 177.24 119.25 C 175.78 125.98 173.63 130.88 171.24 137.25 C 168.86 143.61 168.49 149.32 165.88 154.90 C 163.27 160.48 163.16 166.67 160.65 172.70 C 158.14 178.73 156.65 184.54 154.61 190.75 C 152.56 196.96 150.46 201.78 148.81 208.25 C 147.15 214.72 143.48 219.95 142.00 227.00
C 132.82 223.07 132.84 211.84 128.87 203.08 C 124.90 194.32 123.28 184.61 119.81 175.75 C 116.34 166.88 113.07 157.89 109.87 149.08 C 106.67 140.28 103.83 130.12 100.00 121.00
C 98.17 129.92 93.27 135.80 91.29 143.30 C 89.31 150.79 85.87 157.28 83.29 164.30 C 80.71 171.33 78.53 178.73 75.29 185.30 C 72.05 191.87 71.80 200.45 67.74 206.75 C 63.67 213.05 65.60 224.20 56.00 227.00
C 54.10 221.97 52.11 215.12 50.41 209.25 C 48.71 203.38 46.81 197.99 45.20 191.75 C 43.58 185.52 41.23 179.93 39.24 173.75 C 37.26 167.58 36.67 161.82 34.79 155.77 C 32.90 149.71 30.27 144.12 28.87 138.08 C 27.47 132.05 25.08 126.26 23.23 119.77 C 21.38 113.28 20.55 109.28 17.87 103.08 C 15.19 96.89 5.79 95.69 1.00 93.00
C 15.34 92.78 32.43 92.96 47.00 93.00
M 671.00 93.00 
C 669.63 97.88 661.87 93.38 659.00 98.00
C 665.80 132.91 677.36 166.04 686.00 201.00
C 691.76 188.75 694.42 176.23 699.19 164.75 C 703.97 153.28 708.26 140.70 713.13 129.08 C 718.00 117.47 719.85 103.17 729.00 93.00
C 741.39 128.68 754.56 163.01 766.00 200.00
C 772.52 189.89 773.52 176.83 777.21 165.77 C 780.91 154.71 785.35 144.37 788.26 132.25 C 791.18 120.13 796.97 109.97 795.00 96.00
C 792.29 95.03 784.84 98.25 784.00 93.00
C 795.84 92.35 810.49 93.64 822.00 92.00
C 819.49 96.89 809.07 96.33 807.87 102.92 C 806.67 109.50 802.65 112.59 801.24 119.25 C 799.84 125.91 797.34 131.01 795.24 137.25 C 793.14 143.48 792.66 149.24 789.88 154.90 C 787.11 160.56 787.40 166.32 784.61 172.75 C 781.81 179.18 780.85 184.18 778.61 190.75 C 776.36 197.32 774.60 202.37 772.81 208.25 C 771.02 214.14 767.71 220.04 766.00 227.00
C 756.39 223.26 757.27 211.97 753.61 203.25 C 749.94 194.53 746.74 185.46 743.29 176.70 C 739.83 167.94 738.09 158.15 734.81 149.75 C 731.52 141.36 727.72 131.79 725.00 123.00
C 720.40 129.04 717.88 136.63 715.43 143.77 C 712.97 150.90 709.90 158.14 707.42 164.77 C 704.95 171.40 702.31 179.16 699.24 186.25 C 696.18 193.33 695.33 200.57 691.29 207.30 C 687.26 214.03 689.81 224.34 680.00 227.00
C 677.65 220.66 676.67 215.95 674.36 209.30 C 672.05 202.64 672.01 198.91 669.61 191.25 C 667.20 183.59 666.51 183.55 663.69 173.30 C 660.87 163.05 655.91 148.26 653.20 137.75 C 650.49 127.25 649.34 128.51 647.09 119.90 C 644.85 111.29 644.70 110.12 641.87 103.08 C 639.05 96.04 630.15 96.38 625.00 93.00
C 639.09 91.47 656.56 93.67 671.00 93.00
M 892.00 93.00 
C 889.01 97.58 879.69 94.56 879.41 102.75 C 879.13 110.94 878.91 119.15 879.00 129.00 C 879.09 138.85 878.82 151.11 879.00 161.00 C 879.18 170.89 878.60 182.48 879.00 192.00 C 879.40 201.52 879.87 207.86 880.60 215.75 C 881.34 223.64 892.61 218.92 896.00 225.00
C 881.53 223.63 865.00 225.33 851.00 224.00
C 853.81 220.53 858.25 221.51 861.00 221.00
C 864.76 202.44 865.38 171.98 864.00 151.00 C 862.62 130.02 872.50 96.85 851.00 95.00
C 854.28 88.65 864.82 93.92 871.22 93.78 C 877.62 93.64 886.05 91.41 892.00 93.00 Z"/>
</g>
<g fill="#000000" fill-opacity="0.91" stroke="None">
<path d="
M 565.00 5.00 
C 548.19 8.56 527.32 7.86 511.00 5.00
C 510.06 8.88 509.04 11.70 508.00 16.00
C 512.79 8.58 523.06 10.09 534.00 10.00
C 533.76 28.62 534.70 48.51 533.00 66.00
C 530.66 65.39 529.78 66.52 527.00 67.00
C 532.34 69.33 544.45 69.82 549.00 67.00
C 537.36 66.46 542.97 54.17 542.00 44.00 C 541.03 33.83 543.55 19.11 541.00 9.00
C 548.85 12.11 565.20 6.58 563.00 17.00
C 568.03 16.35 566.13 8.30 565.00 5.00 Z"/>
</g>
<g fill="#000000" fill-opacity="0.95" stroke="None">
<path d="
M 603.00 9.00 
C 598.22 6.24 586.67 4.17 581.00 8.00
C 584.53 8.24 586.43 8.36 589.00 10.00
C 588.53 19.78 589.52 33.76 589.00 44.00 C 588.48 54.24 591.82 66.06 582.00 68.00
C 589.84 68.25 600.38 69.68 607.00 67.00
C 592.53 68.35 600.70 46.58 598.00 36.00
C 610.00 36.00 622.00 36.00 634.00 36.00
C 631.90 45.79 639.21 64.80 628.00 67.00
C 633.30 68.82 646.71 70.52 650.00 66.00
C 646.37 66.71 644.59 66.79 642.00 65.00
C 642.19 47.71 641.94 27.30 642.00 10.00
C 644.45 9.34 645.35 7.29 648.00 9.00
C 644.44 5.02 632.50 6.00 626.00 7.00
C 627.71 10.31 631.36 7.00 634.00 10.00
C 632.16 16.61 638.80 33.40 628.00 33.00 C 617.20 32.60 608.60 33.30 598.00 33.00
C 597.15 25.73 599.33 16.74 598.00 11.00
C 599.62 9.25 600.50 7.71 603.00 9.00 Z"/>
</g>
<g fill="#000000" fill-opacity="0.90" stroke="None">
<path d="
M 714.00 6.00 
C 698.90 9.86 679.38 3.27 665.00 8.00
C 667.90 7.18 670.50 10.33 673.00 8.00
C 676.92 15.75 675.03 28.97 675.00 39.00 C 674.97 49.03 677.67 60.67 672.00 67.00
C 670.99 66.20 668.58 65.83 667.00 67.00
C 680.54 69.10 698.63 68.66 713.00 69.00
C 715.31 65.07 715.30 61.63 716.00 57.00
C 711.55 66.85 695.37 66.94 685.00 62.00
C 686.48 54.18 686.77 44.81 685.00 37.00
C 694.43 38.12 706.21 34.11 710.00 43.00
C 710.51 38.21 711.10 34.60 711.00 31.00
C 705.16 35.65 693.94 33.40 685.00 34.00
C 685.00 26.00 685.00 18.00 685.00 10.00
C 694.94 11.07 708.39 7.10 711.00 17.00
C 713.91 13.42 711.20 8.90 714.00 6.00 Z"/>
</g>
<g fill="#BA0E0E" fill-opacity="1.00" stroke="None">
<path d="
M 501.00 63.00 
C 491.04 63.00 480.95 63.00 471.00 63.00 C 461.05 63.00 450.90 63.00 441.00 63.00 C 431.10 63.00 421.89 63.00 412.00 63.00 C 402.11 63.00 391.92 63.00 382.00 63.00 C 372.08 63.00 361.89 63.00 352.00 63.00 C 342.11 63.00 332.89 63.00 323.00 63.00 C 313.11 63.00 302.91 63.00 293.00 63.00 C 283.09 63.00 272.88 63.00 263.00 63.00 C 253.12 63.00 243.88 63.00 234.00 63.00 C 224.12 63.00 213.91 62.99 204.00 63.00 C 194.09 63.01 183.87 62.98 174.00 63.00 C 164.13 63.02 154.84 62.96 145.00 63.00 C 135.16 63.04 124.82 62.92 115.00 63.00 C 105.18 63.08 94.68 62.83 85.00 63.00 C 75.32 63.17 65.42 62.60 56.00 63.00 C 46.58 63.40 34.91 62.15 26.00 63.00 C 17.09 63.85 3.35 58.90 2.00 68.00
C 11.96 68.00 22.05 68.00 32.00 68.00 C 41.95 68.00 52.10 68.00 62.00 68.00 C 71.90 68.00 81.11 68.00 91.00 68.00 C 100.89 68.00 111.08 68.00 121.00 68.00 C 130.92 68.00 141.11 68.00 151.00 68.00 C 160.89 68.00 170.11 68.00 180.00 68.00 C 189.89 68.00 200.09 68.00 210.00 68.00 C 219.91 68.00 230.12 68.00 240.00 68.00 C 249.88 68.00 259.12 68.00 269.00 68.00 C 278.88 68.00 289.09 68.01 299.00 68.00 C 308.91 67.99 319.13 68.02 329.00 68.00 C 338.87 67.98 348.16 68.04 358.00 68.00 C 367.84 67.96 378.18 68.08 388.00 68.00 C 397.82 67.92 408.32 68.17 418.00 68.00 C 427.68 67.83 437.58 68.40 447.00 68.00 C 456.42 67.60 468.09 68.85 477.00 68.00 C 485.91 67.15 499.65 72.10 501.00 63.00 Z"/>
</g>
<g fill="#BA0E0E" fill-opacity="1.00" stroke="None">
<path d="
M 1228.00 63.00 
C 1217.71 63.00 1207.28 63.00 1197.00 63.00 C 1186.72 63.00 1176.22 63.00 1166.00 63.00 C 1155.78 63.00 1146.20 63.00 1136.00 63.00 C 1125.80 63.00 1115.19 63.00 1105.00 63.00 C 1094.81 63.00 1085.18 63.00 1075.00 63.00 C 1064.82 63.00 1054.19 63.00 1044.00 63.00 C 1033.81 63.00 1024.20 63.00 1014.00 63.00 C 1003.80 63.00 993.23 63.00 983.00 63.00 C 972.77 63.00 962.20 62.99 952.00 63.00 C 941.80 63.01 932.17 62.98 922.00 63.00 C 911.83 63.02 901.14 62.96 891.00 63.00 C 880.86 63.04 871.09 62.92 861.00 63.00 C 850.91 63.08 839.98 62.82 830.00 63.00 C 820.02 63.18 809.73 62.59 800.00 63.00 C 790.27 63.41 778.22 62.12 769.00 63.00 C 759.78 63.88 745.63 58.83 744.00 68.00
C 754.29 68.00 764.72 68.00 775.00 68.00 C 785.28 68.00 795.78 68.00 806.00 68.00 C 816.22 68.00 825.80 68.00 836.00 68.00 C 846.20 68.00 856.81 68.00 867.00 68.00 C 877.19 68.00 886.82 68.00 897.00 68.00 C 907.18 68.00 917.81 68.00 928.00 68.00 C 938.19 68.00 947.80 68.00 958.00 68.00 C 968.20 68.00 978.77 68.00 989.00 68.00 C 999.23 68.00 1009.80 68.01 1020.00 68.00 C 1030.20 67.99 1039.83 68.02 1050.00 68.00 C 1060.17 67.98 1070.86 68.04 1081.00 68.00 C 1091.14 67.96 1100.91 68.08 1111.00 68.00 C 1121.09 67.92 1132.02 68.18 1142.00 68.00 C 1151.98 67.82 1162.27 68.41 1172.00 68.00 C 1181.73 67.59 1193.78 68.88 1203.00 68.00 C 1212.22 67.12 1226.37 72.17 1228.00 63.00 Z"/>
</g>
<g fill="#000000" fill-opacity="0.95" stroke="None">
<path d="
M 407.00 93.00 
C 398.65 93.24 395.76 89.69 387.00 90.00 C 378.24 90.31 371.10 89.68 364.75 93.41 C 358.40 97.14 354.06 97.68 349.39 106.25 C 344.73 114.81 346.12 134.58 351.30 141.70 C 356.48 148.81 357.96 150.35 364.75 155.25 C 371.54 160.15 374.06 165.71 380.25 169.75 C 386.43 173.80 390.60 179.77 393.42 184.23 C 396.25 188.69 397.52 197.59 395.40 203.25 C 393.28 208.92 392.04 213.20 386.25 216.81 C 380.47 220.42 373.74 220.68 366.25 219.80 C 358.75 218.92 357.42 216.92 351.25 211.75 C 345.07 206.59 348.46 198.86 343.00 194.00
C 342.53 202.77 342.41 212.38 342.00 221.00
C 348.14 224.74 354.99 226.31 363.33 226.67 C 371.67 227.03 383.50 226.22 388.70 223.71 C 393.89 221.21 401.81 214.98 404.81 209.25 C 407.81 203.52 410.25 195.67 409.98 187.03 C 409.70 178.38 405.73 173.96 402.19 168.25 C 398.66 162.54 392.39 155.00 385.92 151.13 C 379.44 147.26 374.37 140.70 367.25 134.75 C 360.13 128.81 356.79 121.42 358.20 113.25 C 359.60 105.08 363.27 100.94 371.25 97.40 C 379.24 93.86 387.77 97.98 395.08 99.91 C 402.40 101.85 400.51 113.94 406.00 117.00
C 403.79 109.09 407.23 100.49 407.00 93.00 Z"/>
</g>
<g fill="#000000" fill-opacity="0.96" stroke="None">
<path d="
M 549.00 92.00 
C 518.45 94.00 471.77 97.02 442.00 90.00
C 441.30 98.28 436.89 105.38 438.00 114.00
C 443.73 107.44 444.44 100.90 454.30 101.31 C 464.16 101.71 476.21 99.12 487.00 100.00
C 487.10 109.89 486.86 120.15 487.00 130.00 C 487.14 139.85 486.74 150.29 487.00 160.00 C 487.26 169.71 486.71 179.07 486.33 188.33 C 485.95 197.59 485.77 204.62 485.21 212.77 C 484.65 220.92 478.63 220.51 474.00 225.00
C 488.03 222.59 504.77 225.99 519.00 224.00
C 510.26 220.13 503.65 222.62 502.40 211.74 C 501.15 200.87 501.28 189.14 502.00 177.00 C 502.72 164.86 501.82 150.42 502.00 138.00 C 502.18 125.58 502.69 112.05 501.00 100.00
C 511.03 101.29 523.36 100.48 532.75 101.80 C 542.15 103.13 544.26 106.86 547.00 116.00
C 547.29 108.59 549.42 100.24 549.00 92.00 Z"/>
</g>
<g fill="#000000" fill-opacity="0.96" stroke="None">
<path d="
M 1049.00 201.00 
C 1037.32 187.20 1026.86 175.45 1014.77 163.23 C 1002.68 151.01 991.50 136.46 979.75 124.25 C 968.01 112.03 957.52 99.56 945.00 90.00
C 945.19 102.47 943.64 115.82 944.00 129.00 C 944.36 142.18 943.65 156.99 944.00 170.00 C 944.35 183.01 943.49 196.94 943.93 208.92 C 944.38 220.89 938.81 220.28 930.00 224.00
C 936.36 225.62 945.09 224.13 952.00 224.00 C 958.91 223.88 968.44 227.19 972.00 222.00
C 949.82 223.84 956.02 201.02 954.93 182.07 C 953.83 163.12 953.46 137.79 952.00 118.00
C 961.53 125.03 967.63 136.30 976.30 144.70 C 984.98 153.10 992.59 162.64 1001.25 171.75 C 1009.92 180.85 1020.29 191.42 1029.75 200.25 C 1039.22 209.07 1048.24 221.41 1058.00 226.00
C 1057.89 205.15 1057.63 180.37 1058.00 159.00 C 1058.37 137.63 1058.67 116.49 1060.00 97.00
C 1064.34 95.52 1066.27 96.01 1071.00 95.00
C 1067.97 88.36 1059.13 94.50 1053.07 93.93 C 1047.01 93.35 1038.14 91.37 1032.00 92.00
C 1031.95 98.24 1047.67 93.48 1047.20 103.75 C 1046.72 114.03 1047.84 122.49 1048.33 133.33 C 1048.82 144.17 1048.25 156.46 1048.67 167.33 C 1049.09 178.20 1051.60 190.55 1049.00 201.00 Z"/>
</g>
<g fill="#000000" fill-opacity="0.96" stroke="None">
<path d="
M 1232.00 161.00 
L 1232.00 159.00
C 1219.02 159.61 1204.46 160.00 1192.00 159.00
C 1195.65 164.62 1205.60 160.15 1206.22 169.78 C 1206.84 179.41 1206.43 190.86 1207.00 201.00 C 1207.57 211.14 1205.67 215.94 1198.75 217.41 C 1191.84 218.88 1182.79 220.24 1175.70 218.35 C 1168.60 216.46 1163.45 217.52 1158.30 214.71 C 1153.16 211.91 1149.89 209.85 1144.92 206.13 C 1139.94 202.41 1134.72 197.18 1131.19 192.25 C 1127.66 187.33 1126.73 182.67 1124.19 177.25 C 1121.65 171.84 1121.44 166.37 1120.99 159.01 C 1120.54 151.65 1119.92 142.10 1121.81 136.25 C 1123.69 130.40 1123.90 125.68 1126.89 120.89 C 1129.89 116.11 1133.94 109.24 1139.97 105.97 C 1145.99 102.70 1150.19 100.12 1156.77 98.21 C 1163.35 96.30 1173.96 97.04 1181.25 97.60 C 1188.54 98.16 1192.88 98.54 1198.90 100.09 C 1204.92 101.65 1207.43 105.08 1213.25 109.75 C 1219.08 114.41 1216.43 121.67 1222.00 125.00
C 1219.26 118.15 1225.76 103.07 1222.97 97.03 C 1220.17 91.00 1209.40 95.24 1203.75 92.60 C 1198.10 89.97 1190.62 90.63 1183.00 91.00 C 1175.38 91.37 1164.90 89.26 1158.25 91.24 C 1151.60 93.23 1147.43 94.31 1141.23 97.23 C 1135.03 100.15 1130.31 102.84 1124.75 107.75 C 1119.19 112.66 1115.94 118.97 1112.77 124.77 C 1109.60 130.57 1107.81 135.51 1106.39 141.25 C 1104.98 146.98 1104.13 156.05 1104.98 162.97 C 1105.83 169.90 1105.79 175.21 1108.20 180.75 C 1110.61 186.29 1112.30 193.30 1116.10 197.90 C 1119.90 202.50 1125.87 210.44 1131.25 213.61 C 1136.62 216.78 1139.72 218.35 1144.75 220.81 C 1149.78 223.26 1155.29 223.95 1161.25 225.60 C 1167.21 227.26 1179.30 227.03 1186.98 226.98 C 1194.66 226.92 1200.12 225.64 1206.23 224.58 C 1212.34 223.51 1216.71 220.12 1222.00 218.00
C 1221.95 207.26 1221.92 191.01 1222.01 180.01 C 1222.10 169.01 1222.31 163.50 1232.00 161.00 Z"/>
</g>
<g fill="#000000" fill-opacity="0.96" stroke="None">
<path d="
M 295.00 91.00 
C 273.79 95.49 245.90 93.77 223.00 92.00
C 223.53 98.89 236.36 93.48 236.40 103.26 C 236.44 113.03 237.31 123.30 237.00 134.00 C 236.69 144.70 237.09 157.45 237.00 168.00 C 236.91 178.55 236.92 190.57 237.00 200.00 C 237.08 209.43 235.20 215.11 234.00 221.00
C 230.59 222.09 225.25 220.64 224.00 224.00
C 246.44 223.37 272.92 227.82 296.00 224.00
C 297.11 217.73 298.42 208.70 299.00 201.00
C 293.71 204.39 294.56 215.59 286.75 216.41 C 278.94 217.23 264.61 220.12 257.30 216.71 C 250.00 213.30 251.36 202.25 251.00 192.00 C 250.64 181.75 250.63 165.61 252.00 157.00
C 265.58 159.81 289.98 152.45 287.00 172.00
C 291.98 166.38 290.82 152.66 291.00 145.00
C 282.14 155.22 266.21 149.06 252.00 151.00
C 251.34 134.08 253.32 116.50 251.00 100.00
C 266.15 99.70 291.61 95.08 289.00 114.00
C 295.10 116.08 291.72 107.35 293.22 103.22 C 294.72 99.09 293.27 95.27 295.00 91.00 Z"/>
</g>
<g fill="#000000" fill-opacity="0.95" stroke="None">
<path d="
M 47.00 93.00 
C 32.43 92.96 15.34 92.78 1.00 93.00
C 5.79 95.69 15.19 96.89 17.87 103.08 C 20.55 109.28 21.38 113.28 23.23 119.77 C 25.08 126.26 27.47 132.05 28.87 138.08 C 30.27 144.12 32.90 149.71 34.79 155.77 C 36.67 161.82 37.26 167.58 39.24 173.75 C 41.23 179.93 43.58 185.52 45.20 191.75 C 46.81 197.99 48.71 203.38 50.41 209.25 C 52.11 215.12 54.10 221.97 56.00 227.00
C 65.60 224.20 63.67 213.05 67.74 206.75 C 71.80 200.45 72.05 191.87 75.29 185.30 C 78.53 178.73 80.71 171.33 83.29 164.30 C 85.87 157.28 89.31 150.79 91.29 143.30 C 93.27 135.80 98.17 129.92 100.00 121.00
C 103.83 130.12 106.67 140.28 109.87 149.08 C 113.07 157.89 116.34 166.88 119.81 175.75 C 123.28 184.61 124.90 194.32 128.87 203.08 C 132.84 211.84 132.82 223.07 142.00 227.00
C 143.48 219.95 147.15 214.72 148.81 208.25 C 150.46 201.78 152.56 196.96 154.61 190.75 C 156.65 184.54 158.14 178.73 160.65 172.70 C 163.16 166.67 163.27 160.48 165.88 154.90 C 168.49 149.32 168.86 143.61 171.24 137.25 C 173.63 130.88 175.78 125.98 177.24 119.25 C 178.71 112.51 182.62 109.38 183.87 102.92 C 185.12 96.46 195.45 96.80 198.00 92.00
C 186.43 93.70 171.89 92.40 160.00 93.00
C 159.84 97.08 165.69 96.55 168.00 95.00
C 176.58 103.82 168.09 114.21 166.21 122.77 C 164.33 131.33 161.99 140.54 159.13 149.08 C 156.28 157.63 154.21 165.67 151.26 174.25 C 148.32 182.83 147.08 192.47 142.00 200.00
C 130.52 162.96 117.20 128.47 105.00 93.00
C 95.94 102.71 93.99 117.24 89.13 129.08 C 84.27 140.92 80.16 152.19 75.19 164.75 C 70.23 177.31 67.71 188.14 62.00 201.00
C 53.35 166.22 41.40 132.07 35.00 98.00
C 37.87 93.38 45.63 97.88 47.00 93.00 Z"/>
</g>
<g fill="#000000" fill-opacity="0.95" stroke="None">
<path d="
M 671.00 93.00 
C 656.56 93.67 639.09 91.47 625.00 93.00
C 630.15 96.38 639.05 96.04 641.87 103.08 C 644.70 110.12 644.85 111.29 647.09 119.90 C 649.34 128.51 650.49 127.25 653.20 137.75 C 655.91 148.26 660.87 163.05 663.69 173.30 C 666.51 183.55 667.20 183.59 669.61 191.25 C 672.01 198.91 672.05 202.64 674.36 209.30 C 676.67 215.95 677.65 220.66 680.00 227.00
C 689.81 224.34 687.26 214.03 691.29 207.30 C 695.33 200.57 696.18 193.33 699.24 186.25 C 702.31 179.16 704.95 171.40 707.42 164.77 C 709.90 158.14 712.97 150.90 715.43 143.77 C 717.88 136.63 720.40 129.04 725.00 123.00
C 727.72 131.79 731.52 141.36 734.81 149.75 C 738.09 158.15 739.83 167.94 743.29 176.70 C 746.74 185.46 749.94 194.53 753.61 203.25 C 757.27 211.97 756.39 223.26 766.00 227.00
C 767.71 220.04 771.02 214.14 772.81 208.25 C 774.60 202.37 776.36 197.32 778.61 190.75 C 780.85 184.18 781.81 179.18 784.61 172.75 C 787.40 166.32 787.11 160.56 789.88 154.90 C 792.66 149.24 793.14 143.48 795.24 137.25 C 797.34 131.01 799.84 125.91 801.24 119.25 C 802.65 112.59 806.67 109.50 807.87 102.92 C 809.07 96.33 819.49 96.89 822.00 92.00
C 810.49 93.64 795.84 92.35 784.00 93.00
C 784.84 98.25 792.29 95.03 795.00 96.00
C 796.97 109.97 791.18 120.13 788.26 132.25 C 785.35 144.37 780.91 154.71 777.21 165.77 C 773.52 176.83 772.52 189.89 766.00 200.00
C 754.56 163.01 741.39 128.68 729.00 93.00
C 719.85 103.17 718.00 117.47 713.13 129.08 C 708.26 140.70 703.97 153.28 699.19 164.75 C 694.42 176.23 691.76 188.75 686.00 201.00
C 677.36 166.04 665.80 132.91 659.00 98.00
C 661.87 93.38 669.63 97.88 671.00 93.00 Z"/>
</g>
<g fill="#000000" fill-opacity="0.98" stroke="None">
<path d="
M 892.00 93.00 
C 886.05 91.41 877.62 93.64 871.22 93.78 C 864.82 93.92 854.28 88.65 851.00 95.00
C 872.50 96.85 862.62 130.02 864.00 151.00 C 865.38 171.98 864.76 202.44 861.00 221.00
C 858.25 221.51 853.81 220.53 851.00 224.00
C 865.00 225.33 881.53 223.63 896.00 225.00
C 892.61 218.92 881.34 223.64 880.60 215.75 C 879.87 207.86 879.40 201.52 879.00 192.00 C 878.60 182.48 879.18 170.89 879.00 161.00 C 878.82 151.11 879.09 138.85 879.00 129.00 C 878.91 119.15 879.13 110.94 879.41 102.75 C 879.69 94.56 889.01 97.58 892.00 93.00 Z"/>
</g>
</svg>